<svg id="Layer_1" xmlns="http://www.w3.org/2000/svg" viewBox="0 0 500 500"><style>.st0{fill:#61b872}.st1{fill:#50965c}.st2{fill:#edeada}.st3{fill:#424a60}.st4{fill:#d8a852}.st5{fill:#a37f46}.st6{fill:#556080}.st7{fill:#26b99a}.st8{fill:#e7eced}.st9{fill:#ebba16}.st10{fill:#a1c8ec}.st11{fill:#23a24d}.st12{fill:#efce4a}.st13{fill:#f7e6a1}.st14,.st15{fill:#7fabda;stroke:#7383bf;stroke-width:2;stroke-linecap:round;stroke-miterlimit:10}.st15{fill:none;stroke:#424a60}.st16{fill:#43b05c}.st17{fill:#7383bf}.st18{fill:#57d8ab}.st19{fill:#d75a4a}.st20{fill:#4b6daa}.st21{fill:#ed8a19}.st22{fill:#3083c9}.st23{fill:#c8d2d6}.st24{fill:#fbce9d}.st25{fill:#f7b563}.st26{fill:#fff}.st27{fill:#1a9172}.st28{fill:#25ae88}.st29{fill:#88c057}</style><path class="st0" d="M79 229H38v11h56v-11z"/><circle class="st1" cx="57.2" cy="232.9" r="2"/><circle class="st1" cx="63.2" cy="232.9" r="2"/><circle class="st1" cx="69.2" cy="232.9" r="2"/><circle class="st1" cx="75.2" cy="232.9" r="2"/><path class="st2" d="M38 240h56v40H38z"/><circle class="st3" cx="59.2" cy="247.9" r="1"/><circle class="st3" cx="66.2" cy="247.9" r="1"/><circle class="st3" cx="73.2" cy="247.9" r="1"/><circle class="st3" cx="80.2" cy="247.9" r="1"/><circle class="st3" cx="87.2" cy="247.9" r="1"/><circle class="st3" cx="45.2" cy="255.9" r="1"/><circle class="st3" cx="52.2" cy="255.9" r="1"/><circle class="st3" cx="59.2" cy="255.9" r="1"/><circle class="st3" cx="66.2" cy="255.9" r="1"/><circle class="st3" cx="73.2" cy="255.9" r="1"/><circle class="st3" cx="80.2" cy="255.9" r="1"/><circle class="st3" cx="87.2" cy="255.9" r="1"/><circle class="st3" cx="45.2" cy="262.9" r="1"/><circle class="st3" cx="52.2" cy="262.9" r="1"/><circle class="st3" cx="59.2" cy="262.9" r="1"/><circle class="st3" cx="66.2" cy="262.9" r="1"/><circle class="st3" cx="73.2" cy="262.9" r="1"/><circle class="st3" cx="80.2" cy="262.9" r="1"/><circle class="st3" cx="87.2" cy="262.9" r="1"/><circle class="st3" cx="45.2" cy="270.9" r="1"/><circle class="st3" cx="52.2" cy="270.9" r="1"/><circle class="st3" cx="59.2" cy="270.9" r="1"/><circle class="st3" cx="66.2" cy="270.9" r="1"/><circle class="st3" cx="73.2" cy="270.9" r="1"/><path class="st4" d="M75.2 223.9c-1.1 0-2.2.4-3 1 .5.4 1 .9 1.3 1.5.5-.3 1.1-.5 1.7-.5 1.7 0 3 1.3 3 3s-1.3 3-3 3c-.6 0-1 .4-1 1s.4 1 1 1c2.8 0 5-2.2 5-5s-2.2-5-5-5z"/><path class="st5" d="M70.9 226.5c-.4.7-.7 1.6-.7 2.5h2c0-1-.5-1.9-1.3-2.5zM64.9 226.5c-.4.7-.7 1.6-.7 2.5h2c0-1-.5-1.9-1.3-2.5z"/><path class="st4" d="M73.5 226.4c-.3-.6-.8-1.1-1.3-1.5-.8-.6-1.9-1-3-1s-2.2.4-3 1c.5.4 1 .9 1.3 1.5.5-.3 1.1-.5 1.7-.5s1.2.2 1.7.5c.8.5 1.3 1.4 1.3 2.5 0 1.7-1.3 3-3 3-.6 0-1 .4-1 1s.4 1 1 1c2.8 0 5-2.2 5-5 0-1-.3-1.8-.7-2.5z"/><path class="st5" d="M58.9 226.5c-.4.7-.7 1.6-.7 2.5h2c0-1-.5-1.9-1.3-2.5z"/><path class="st4" d="M67.5 226.4c-.3-.6-.8-1.1-1.3-1.5-.8-.6-1.9-1-3-1s-2.2.4-3 1c.5.4 1 .9 1.3 1.5.5-.3 1.1-.5 1.7-.5s1.2.2 1.7.5c.8.5 1.3 1.4 1.3 2.5 0 1.7-1.3 3-3 3-.6 0-1 .4-1 1s.4 1 1 1c2.8 0 5-2.2 5-5 0-1-.3-1.8-.7-2.5z"/><path class="st4" d="M61.5 226.5c-.3-.6-.8-1.1-1.3-1.5-.8-.6-1.9-1-3-1-2.8 0-5 2.2-5 5h2c0-1.7 1.3-3 3-3 .6 0 1.2.2 1.7.5 1.3.9 1.9 2.7.6 4.5-.5.7-1.4 1-2.3 1-.6 0-1 .4-1 1s.4 1 1 1c2.8 0 5-2.2 5-5 0-.9-.3-1.7-.7-2.5z"/><g><circle class="st6" cx="375.1" cy="382" r="29"/><path class="st7" d="M369.7 353.9l.3-.5c-2.9.5-5.6 1.4-8.1 2.7 2 .5 3.5 2.5 3 4.8-.3 1.4-1.5 2.6-2.9 3-2.6.6-5-1.4-5-3.9 0-.3 0-.5.1-.8 1.1-.9-2.2 1.6-4.4 4.2.5.9.5 2-.2 3l-.8 1.2 2 2 1.2-.9c1.8-1.3 4.3-.3 4.7 1.8l.3 1.4h2.8l.2-1.1c.3-2.2 2.9-3.3 4.7-1.9l.9.6 2-2-.8-1.2c-1.2-1.8-.1-4.3 2-4.6l1.5-.2v-2.8l-1.4-.3c-2.4-.2-3.4-2.7-2.1-4.5z"/><path class="st3" d="M399.9 392c.8-.1 1.5 0 2.2.2.6-1.6 1.1-3.4 1.4-5.1-.6-.5-1.1-1.3-1.2-2.2l-.3-1.9h-3.5l-.4 2.3c-.5 2.6-3.5 3.9-5.7 2.4l-2-1.3-2.4 2.4 1.1 1.5c1.6 2.2.4 5.3-2.3 5.8l-1.8.3v3.5l1.9.3c2.7.4 4 3.5 2.5 5.8l-1 1.5.1.1c3.1-1.6 5.8-3.8 8.1-6.3-1.1-1.2-1.8-2.8-1.5-4.6.3-2.4 2.3-4.4 4.8-4.7z"/><path class="st8" d="M398.9 376.5c1.4-1.6 2.4-3.6 2.8-5.8-2.9-6.9-8.5-12.5-15.4-15.4-2.2.5-4.1 1.5-5.8 2.9l-1.4-1.4c-.4-.4-1-.4-1.4 0-.4.4-.4 1 0 1.4l1.4 1.4c-1.8 2-2.9 4.6-3.1 7.5h-2c-.6 0-1 .4-1 1s.4 1 1 1h2c.2 2.8 1.3 5.4 3.1 7.5l-1.4 1.4c-.4.4-.4 1 0 1.4.2.2.5.3.7.3.3 0 .5-.1.7-.3l1.4-1.4c2 1.8 4.6 2.9 7.5 3.1v2c0 .6.4 1 1 1s1-.4 1-1v-2c2.8-.2 5.4-1.3 7.5-3.1l1.4 1.4c.2.2.5.3.7.3.3 0 .5-.1.7-.3.4-.4.4-1 0-1.4l-1.4-1.5zm-9.8-5.5c-1.7 0-3-1.3-3-3s1.3-3 3-3 3 1.3 3 3-1.3 3-3 3z"/><circle class="st8" cx="364.1" cy="393" r="3"/><path class="st9" d="M382.5 400.3l-2.5-1.1c.7-1.9 1.1-3.9 1.1-6 0-1.8-.3-3.6-.8-5.2l2.2-.8c.5-.2.8-.8.6-1.3-.2-.5-.8-.8-1.3-.6l-2.2.8c-1.6-3.5-4.3-6.3-7.6-8l1.1-2.5c.2-.5 0-1.1-.5-1.3-.5-.2-1.1 0-1.3.5l-1.1 2.5c-1.9-.7-3.9-1.1-6-1.1-1.8 0-3.6.3-5.2.8l-.8-2.2c-.2-.5-.8-.8-1.3-.6-.5.2-.8.8-.6 1.3l.8 2.2c-3.5 1.6-6.3 4.3-8 7.7l-2.1-.9c-.2-.1-.4-.1-.6 0 .1.7.1 1.4.2 2l1.7.8c-.4 1-.7 2.1-.9 3.3.3 1.1.8 2.3 1.2 3.3 0 0 0 .1.1.1.2.5.4 1 .7 1.4 0 0 .1.1.1.2.8 1.5 1.7 3 2.8 4.4 0 .1.1.1.1.2.3.4.7.8 1 1.2 0 0 0 .1.1.1.8.9 1.6 1.7 2.5 2.5 0 0 .1 0 .1.1.4.4.8.7 1.2 1 .1 0 .1.1.2.1 1.4 1.1 2.8 2 4.4 2.8.1 0 .1.1.2.1.5.2 1 .5 1.4.7 0 0 .1 0 .1.1 1.1.5 2.2.9 3.3 1.2.9-.1 1.7-.3 2.5-.6v.1l.5 1.3c.7.1 1.5.3 2.3.3l-.9-2.3c3.5-1.6 6.3-4.3 8.1-7.7l2.5 1.1c.1.1.3.1.4.1.4 0 .7-.2.9-.6 0-.7-.2-1.3-.7-1.5zm-18.4-.3c-3.9 0-7-3.1-7-7s3.1-7 7-7 7 3.1 7 7-3.1 7-7 7z"/></g><g><circle class="st10" cx="376.1" cy="115.6" r="20"/><path class="st6" d="M394.4 132.5l-3.5-3.5-1.4 1.4 2.1 2.1c-9 8.3-23.1 8-31.8-.7-4.3-4.3-6.7-10.1-6.7-16.3 0-5.8 2.1-11.3 6-15.5l2.1 2.1 1.4-1.4-3.5-3.5-.7.7c-4.7 4.7-7.3 11-7.3 17.7 0 6.7 2.6 13 7.3 17.7 4.5 4.5 10.4 7 16.7 7.3v10c0 .6.4 1 1 1s1-.4 1-1v-10c6.3-.2 12.2-2.8 16.7-7.3l.6-.8z"/><path class="st6" d="M366 151h20v3h-20z"/><path class="st11" d="M364.9 99v1.1c0 .2 0 .4.1.5 1.4 2.9 3.1 7.9 6.1 9 1.4.6 2.8.3 4.2 1 .1.1.4.2.5.4.7 1 .3 2.5 1 2.9.5.3.9.9.6 1.5-1 2.3-.1 5 2.1 6.9 1.6 1.3.3 4.3-1.1 6.7-.5.8.4 1.8 1.3 1.5 1.4-.5 2.6-1.3 4-2.4 2-1.7 2.4-3.6 4.4-5v-.1c.5-1.5 2.1-4.7.5-5.5-1.5-.8-2-3-3.5-4.5-.2-.2-.4-.3-.6-.3-1.8-.2-2.6-1.6-3.8-.7-.9.7-1.9.3-2.2-.8-.1-.3-.3-.7-.9-.9-.5-.2-.7-.7-.5-1.2.2-.6-1.1-.5-1.8-.4-.2 0 .5-.7.2-.6-.8.5-1.9-.4-1.8-1.3 0-1 .2-.9 1.9-1.1 1.8-.8 2.7-.2 2.6 1.8 1.1.2 1.5-.3 1.2-1.5-.1-.3 0-.7.2-1 2-2.7 3.8-3.8 6.9-4.9.5-.2.7-.6.7-1.1-3.1-2.1-6.9-3.3-10.9-3.3-4.4-.1-8.2 1.1-11.4 3.3z"/></g><g><path class="st12" d="M252.2 185c-33.7-1.6-61.5 25.2-61.5 58.5 0 26 16.9 47.9 40.3 55.6V335h7.3v11h22v-11h7.3v-35.9c24.5-8.1 42-31.9 40.1-59.6-1.8-29.3-26.1-53.1-55.5-54.5zM249.3 153.4c-2 0-3.7 1.6-3.7 3.7v14.6c0 2 1.6 3.7 3.7 3.7 2 0 3.7-1.6 3.7-3.7V157c0-2-1.6-3.6-3.7-3.6zM338.1 239.8h-14.6c-2 0-3.7 1.6-3.7 3.7 0 2 1.6 3.7 3.7 3.7h14.6c2 0 3.7-1.6 3.7-3.7 0-2-1.7-3.7-3.7-3.7zM177 239.8h-14.6c-2 0-3.7 1.6-3.7 3.7 0 2 1.6 3.7 3.7 3.7H177c2 0 3.7-1.6 3.7-3.7 0-2-1.6-3.7-3.7-3.7zM309.8 180.2l-10.4 10.4c-1.4 1.4-1.4 3.7 0 5.2.7.7 1.7 1.1 2.6 1.1s1.9-.4 2.6-1.1l10.4-10.4c1.4-1.4 1.4-3.7 0-5.2-1.5-1.4-3.8-1.4-5.2 0zM195.9 294.1l-10.4 10.4c-1.4 1.4-1.4 3.7 0 5.2.7.7 1.7 1.1 2.6 1.1s1.9-.4 2.6-1.1l10.4-10.4c1.4-1.4 1.4-3.7 0-5.2-1.5-1.4-3.8-1.4-5.2 0zM304.6 294.1c-1.4-1.4-3.7-1.4-5.2 0-1.4 1.4-1.4 3.7 0 5.2l10.4 10.4c.7.7 1.7 1.1 2.6 1.1s1.9-.4 2.6-1.1c1.4-1.4 1.4-3.7 0-5.2l-10.4-10.4zM190.7 180.2c-1.4-1.4-3.7-1.4-5.2 0-1.4 1.4-1.4 3.7 0 5.2l10.4 10.4c.7.7 1.7 1.1 2.6 1.1.9 0 1.9-.4 2.6-1.1 1.4-1.4 1.4-3.7 0-5.2l-10.4-10.4z"/><path class="st13" d="M210 248.6c-2 0-3.7-1.6-3.7-3.7 0-24.2 19.7-43.9 43.9-43.9 2 0 3.7 1.6 3.7 3.7 0 2-1.6 3.7-3.7 3.7-20.2 0-36.6 16.4-36.6 36.6 0 1.9-1.6 3.6-3.6 3.6z"/><path class="st6" d="M231 309.4V335h7.4v11h21.9v-11h7.3v-25.6z"/></g><g><path class="st14" d="M266.3 427c-.1-8.7-7.2-16-15.9-16-5.6 0-10.8 3-13.7 7.3-1.3-.8-2.8-1.3-4.4-1.3-4.4 0-8 3.6-8 8v1c-4 1.9-7 6.5-7 11.2 0 6.5 5.3 11.8 11.8 11.8h34.8c5.2 0 9.9-3.4 11.1-8.5 1.5-6.4-2.8-12.4-8.7-13.5zM266.3 426.7s-2.5-.4-5 0"/><path class="st14" d="M224.3 424.7c0-4.4 3.6-8 8-8s8 3.6 8 8"/><path class="st15" d="M247 432v30M247.3 461.7l-8-8M255.3 453.7l-8 8M247.3 431.7l8 8M239.3 439.7l8-8"/></g><g><path class="st3" d="M428 258h2v18h-2z"/><path transform="rotate(-45.001 439.604 243.505)" class="st3" d="M429 242.5h21.2v2H429z"/><path transform="rotate(-45.001 417.103 266.006)" class="st3" d="M403 265h28.3v2H403z"/><path transform="rotate(-45.001 419.603 244.506)" class="st3" d="M418.6 236.7h2v15.6h-2z"/><path transform="rotate(-45.001 438.603 263.505)" class="st3" d="M437.6 252.9h2v21.2h-2z"/><circle class="st16" cx="449.1" cy="235" r="5"/><circle class="st17" cx="429.1" cy="278" r="5"/><circle class="st18" cx="406.1" cy="276" r="5"/><circle class="st19" cx="413.1" cy="238" r="3"/><circle class="st9" cx="445.1" cy="270" r="3"/><circle class="st20" cx="429.1" cy="254" r="7"/></g><g><path class="st21" d="M259 98c-.6 0-1-.4-1-1s.4-1 1-1h1.9c.6 0 1 .4 1 1s-.4 1-1 1v-1 1H259zm-4.5 0h-2c-.6 0-1-.4-1-1s.4-1 1-1h2c.6 0 1 .4 1 1s-.4 1-1 1zm-6 0h-2c-.6 0-1-.4-1-1s.4-1 1-1h2c.6 0 1 .4 1 1s-.4 1-1 1zm-6 0h-2c-.6 0-1-.4-1-1s.4-1 1-1h2c.6 0 1 .4 1 1s-.4 1-1 1zm-6 0h-2c-.6 0-1-.4-1-1s.4-1 1-1h2c.6 0 1 .4 1 1s-.4 1-1 1zm-6 0h-2c-.6 0-1-.4-1-1s.4-1 1-1h2c.6 0 1 .4 1 1s-.4 1-1 1zm33.5-1.7c-.2 0-.4-.1-.6-.2-.4-.3-.5-1-.2-1.4.3-.4.5-.9.7-1.4.1-.5.7-.9 1.2-.8.5.1.9.7.8 1.2-.2.8-.5 1.5-1 2.2-.3.3-.6.4-.9.4zm0-5.6c-.3 0-.6-.1-.8-.4-.3-.4-.7-.7-1.2-1-.5-.2-.7-.8-.5-1.3.2-.5.8-.7 1.3-.5.7.4 1.4.9 1.9 1.5.3.4.3 1.1-.2 1.4-.1.3-.3.3-.5.3zm-5.5-1.7h-2c-.6 0-1-.4-1-1s.4-1 1-1h2c.6 0 1 .4 1 1s-.4 1-1 1zm-6 0h-2c-.6 0-1-.4-1-1s.4-1 1-1h2c.6 0 1 .4 1 1s-.4 1-1 1zm-5.9-.4c-.1 0-.3 0-.4-.1-.7-.3-1.4-.8-1.9-1.5-.4-.4-.3-1.1.1-1.4.4-.4 1.1-.3 1.4.1.3.4.8.7 1.2.9.5.2.7.8.5 1.3-.2.5-.5.7-.9.7zm-2.6-4.9h-.2c-.5-.1-.9-.6-.8-1.2.2-.8.5-1.6 1-2.2.3-.4 1-.5 1.4-.2.4.3.5 1 .2 1.4-.3.4-.5.9-.6 1.4-.1.4-.5.8-1 .8zm4.2-3.7c-.5 0-1-.4-1-1s.4-1 1-1h2.1c.6 0 1 .4 1 1s-.4 1-1 1h-2.1c.1 0 .1 0 0 0zm18.3 0h-.2c-.6 0-1-.4-1-1s.4-1 1-1h.2c.5 0 .9-.1 1.4-.3.5-.2 1.1 0 1.3.5.2.5 0 1.1-.5 1.3-.8.4-1.5.5-2.2.5zm-4.3 0h-2c-.6 0-1-.4-1-1s.4-1 1-1h2c.6 0 1 .4 1 1s-.4 1-1 1zm-6 0h-2c-.6 0-1-.4-1-1s.4-1 1-1h2c.6 0 1 .4 1 1s-.4 1-1 1zm14.6-3.2h-.3c-.5-.2-.8-.7-.7-1.2.1-.3.1-.7.1-1V74c-.1-.5.3-1.1.8-1.1.5-.1 1.1.3 1.1.8 0 .3.1.6.1.9 0 .5-.1 1-.2 1.5-.1.4-.5.7-.9.7zm-2.1-5.2c-.2 0-.3 0-.5-.1-.5-.3-.9-.4-1.5-.5-.6 0-1-.5-.9-1.1 0-.6.5-1 1.1-.9.8.1 1.6.3 2.3.7.5.3.6.9.4 1.4-.2.4-.6.5-.9.5zm-5.9-.6h-2c-.6 0-1-.4-1-1s.4-1 1-1h2c.6 0 1 .4 1 1s-.4 1-1 1zm-6 0h-2c-.6 0-1-.4-1-1s.4-1 1-1h2c.6 0 1 .4 1 1s-.4 1-1 1zm-6 0h-2c-.6 0-1-.4-1-1s.4-1 1-1h2c.6 0 1 .4 1 1s-.4 1-1 1zm-6 0h-.4c-.7 0-1.3-.1-2-.4-.5-.2-.8-.8-.6-1.3.2-.5.8-.8 1.3-.6.4.2.8.2 1.3.2h.4c.6 0 1 .4 1 1s-.4 1.1-1 1.1zm-4.6-3.1c-.4 0-.8-.3-1-.7-.2-.6-.3-1.1-.3-1.7v-.7c.1-.5.6-.9 1.1-.9.5.1.9.6.9 1.1v.4c0 .4.1.7.2 1.1.2.5-.1 1.1-.6 1.3-.1.1-.2.1-.3.1zm1.9-5.2c-.3 0-.7-.2-.9-.5-.3-.5-.1-1.1.3-1.4.7-.4 1.5-.7 2.3-.8.6-.1 1 .3 1.1.9s-.3 1-.9 1.1c-.5.1-1 .2-1.5.5-.1.2-.2.2-.4.2zM256 62h-2c-.6 0-1-.4-1-1s.4-1 1-1h2c.6 0 1 .4 1 1s-.5 1-1 1zm-6 0h-2c-.6 0-1-.4-1-1s.4-1 1-1h2c.6 0 1 .4 1 1s-.5 1-1 1z"/><path class="st7" d="M266.9 41.7c-3.2-3.6-8.3-3.6-11.4 0-3.2 3.6-3.2 9.3 0 12.9l5.7 6.4 5.7-6.4c3.2-3.6 3.2-9.3 0-12.9zM261.5 52c-2.5 0-4.5-2-4.5-4.5s2-4.5 4.5-4.5 4.5 2 4.5 4.5-2.1 4.5-4.5 4.5z"/><path class="st22" d="M232.7 67.7c-4.3-4.9-11.3-4.9-15.6 0-4.3 4.9-4.3 12.7 0 17.6L225 94l7.8-8.8c4.2-4.8 4.2-12.7-.1-17.5zM225 80c-2.8 0-5-2.2-5-5s2.2-5 5-5 5 2.2 5 5-2.3 5-5 5z"/></g><g><path class="st23" d="M116 401h24v11h-24z"/><path class="st8" d="M132 412h-16v-11h9.4c3.6 0 6.6 2.9 6.6 6.6v4.4z"/><circle class="st17" cx="125" cy="406.3" r="2.5"/><path class="st24" d="M123.5 364.5c1.2-.5 2.1-1.8 2.1-3.2 0-1.9-1.6-3.5-3.5-3.5-1.4 0-2.7.9-3.2 2.1l4.6 4.6z"/><path class="st24" d="M128.5 369.5c1.2-.5 2.1-1.8 2.1-3.2 0-1.9-1.6-3.5-3.5-3.5-1.4 0-2.7.9-3.2 2.1l4.6 4.6z"/><path class="st24" d="M133.5 374.5c1.2-.5 2.1-1.8 2.1-3.2 0-1.9-1.6-3.5-3.5-3.5-1.4 0-2.7.9-3.2 2.1l4.6 4.6z"/><path class="st24" d="M138.5 379.5c1.2-.5 2.1-1.8 2.1-3.2 0-1.9-1.6-3.5-3.5-3.5-1.4 0-2.7.9-3.2 2.1l4.6 4.6zM118 387h-10c-1.9 0-3.5-1.6-3.5-3.5s1.6-3.5 3.5-3.5h10c1.9 0 3.5 1.6 3.5 3.5S120 387 118 387z"/><path class="st25" d="M139.1 385.6L128 396.7c-.9.9-2.3.9-3.2 0l-9.7-9.7h-6.6c-.6.3-2.2-.7-1.6-.2l10.8 10.8c.1.1.2.1.2.2v3.3h20v-4.5c1.8-1.4 3-3.5 3-6 .1-2-.6-3.7-1.8-5z"/><path class="st3" d="M115.6 356.9L100 372.5l7.6 7.6h10.3c1.5 0 2.9.9 3.4 2.4.8 2.4-1 4.6-3.3 4.6h-3.4l6.4 6.4 15.6-15.6-21-21z"/><path class="st8" d="M115.6 356.7l-2.2-2.2c-.9-.9-2.3-.9-3.2 0l-12.3 12.3c-.9.9-.9 2.3 0 3.2l2.2 2.2 15.5-15.5zM139.9 380.9l-3.3-3.3-15.6 15.6 3.3 3.3c.9.9 2.3.9 3.2 0l12.3-12.3c1-.9 1-2.4.1-3.3z"/><circle class="st26" cx="131" cy="387.3" r="2"/><path class="st3" d="M105.5 364.8c-.3 0-.5-.1-.7-.3-.4-.4-.4-1 0-1.4l2-2c.4-.4 1-.4 1.4 0s.4 1 0 1.4l-2 2c-.1.2-.4.3-.7.3z"/></g><g><path class="st3" d="M112 132v-10 .4c0-2.3 3.7-4.3 9.1-5.4H91.6c-2 0-3.6 1.6-3.6 3.6v11.8c0 2 1.6 3.6 3.6 3.6H112v-4z"/><path class="st6" d="M112 150v-14H91.6c-2 0-3.6 1.6-3.6 3.6v11.8c0 2 1.6 3.6 3.6 3.6h28.7c-4.7-1.1-7.9-2.9-8.3-5zM142.4 117H91.6c-2 0-3.6-1.6-3.6-3.6v-11.8c0-2 1.6-3.6 3.6-3.6h50.8c2 0 3.6 1.6 3.6 3.6v11.8c0 2-1.6 3.6-3.6 3.6z"/><circle class="st17" cx="97.7" cy="107.7" r="3.5"/><circle class="st17" cx="137.2" cy="106.2" r="1"/><circle class="st17" cx="133.2" cy="106.2" r="1"/><circle class="st17" cx="139.2" cy="109.2" r="1"/><circle class="st17" cx="135.2" cy="109.2" r="1"/><circle class="st17" cx="129.2" cy="106.2" r="1"/><circle class="st17" cx="131.2" cy="109.2" r="1"/><circle class="st17" cx="125.2" cy="106.2" r="1"/><circle class="st17" cx="127.2" cy="109.2" r="1"/><circle class="st17" cx="121.2" cy="106.2" r="1"/><circle class="st17" cx="123.2" cy="109.2" r="1"/><circle class="st17" cx="97.7" cy="126.7" r="3.5"/><circle class="st17" cx="97.7" cy="145.7" r="3.5"/><path class="st27" d="M130 145.8c-9.9 0-18-2.9-18-6.4V150c.5 3.3 8.4 6 18 6s17.4-2.7 18-6v-10.6c0 3.5-8.1 6.4-18 6.4zM112 139v0zM148 139v.4-.4z"/><path class="st28" d="M130 135.2c-9.9 0-18-2.9-18-6.4V140c.5 3.3 8.4 6 18 6s17.4-2.7 18-6v-11.1c0 3.5-8.1 6.3-18 6.3zM112 128v0zM148 128v.4-.4z"/><ellipse class="st29" cx="130.2" cy="118.5" rx="18" ry="6.4"/><path class="st0" d="M130 124.8c-9.9 0-18-2.9-18-6.4V129c.5 3.3 8.4 6 18 6s17.4-2.7 18-6v-10.6c0 3.5-8.1 6.4-18 6.4zM112 118v0zM148 118v.4-.4z"/></g></svg>