<svg id="Layer_1" xmlns="http://www.w3.org/2000/svg" viewBox="0 0 500 294.3"><style>.st0{fill-rule:evenodd;clip-rule:evenodd}.st0,.st1{fill:#fff}</style><path class="st0" d="M315.9 0h70.7L106 279.8c-9.7 9.7-21.5 14.6-35.2 14.6H0L280.7 14.6C290.4 4.9 302.2 0 315.9 0m49.8 56.1h70.7l-99.7 99.4c-9.7 9.7-21.5 14.6-35.2 14.6h-70.7l99.7-99.4c9.7-9.7 21.5-14.6 35.2-14.6zm-3.9 237.8h70.7l-99.7-99.4c-9.7-9.7-21.5-14.6-35.2-14.6h-70.7l99.7 99.4c9.7 9.8 21.5 14.6 35.2 14.6z"/><path class="st1" d="M500 155.9h-11.6v44.4h-10.8v-44.4H466v-8.7h34v8.7zm-37.6 44.5h-10.8v-53.2h10.8v53.2zm-15.2 0h-10.9v-35.5l-8.9 12.5v23h-10.9v-22.7l-8.9-12.6v35.3h-10.8v-53.2h10.9l14.2 20.3h.5l14-20.3h10.9v53.2z"/></svg>